<?xml version="1.0" standalone="no"?>
<!DOCTYPE svg PUBLIC "-//W3C//DTD SVG 20010904//EN"
 "http://www.w3.org/TR/2001/REC-SVG-20010904/DTD/svg10.dtd">
<svg version="1.0" xmlns="http://www.w3.org/2000/svg"
 width="320.000000pt" height="250.000000pt" viewBox="0 0 320.000000 250.000000"
 preserveAspectRatio="xMidYMid meet">

<g transform="translate(0.000000,250.000000) scale(0.100000,-0.100000)"
fill="#000000" stroke="none">
<path d="M1712 1538 c-20 -20 -14 -66 9 -79 33 -17 69 3 69 39 0 33 -16 52
-45 52 -12 0 -26 -5 -33 -12z"/>
<path d="M464 1411 c-53 -24 -74 -55 -74 -107 0 -51 30 -86 97 -115 63 -27 83
-46 83 -80 0 -53 -59 -73 -138 -45 -38 14 -40 14 -46 -7 -10 -39 -7 -44 39
-57 53 -15 137 -8 171 15 36 23 57 72 51 117 -7 52 -29 75 -105 110 -39 17
-67 38 -73 52 -24 52 36 89 107 66 30 -10 38 -10 45 1 18 29 9 48 -28 58 -53
15 -82 13 -129 -8z"/>
<path d="M847 1416 c-82 -30 -129 -107 -130 -210 -1 -162 120 -247 293 -206
49 12 51 14 45 39 -4 14 -8 27 -9 28 -1 2 -28 -3 -58 -9 -68 -14 -128 0 -164
39 -21 22 -41 79 -32 88 2 2 63 5 134 6 72 0 137 5 144 9 38 24 -10 170 -66
202 -43 25 -111 31 -157 14z m112 -62 c21 -15 51 -70 51 -94 0 -6 -41 -10
-110 -10 -60 0 -110 2 -110 5 0 3 6 20 14 39 28 67 103 96 155 60z"/>
<path d="M1330 1419 c-13 -6 -39 -21 -57 -35 l-33 -25 0 30 c0 29 -3 31 -35
31 l-35 0 3 -207 2 -208 40 -3 40 -3 -2 125 c-1 69 3 141 8 160 12 45 52 76
96 76 80 0 94 -32 96 -216 l2 -139 38 -3 39 -3 -4 168 c-3 155 -5 170 -25 199
-37 51 -116 75 -173 53z"/>
<path d="M1660 1356 c-19 -57 -25 -99 -28 -213 l-4 -143 41 0 41 0 0 133 c0
144 5 177 26 177 11 0 14 -30 14 -155 0 -97 4 -155 10 -155 6 0 10 63 10 169
0 145 -2 170 -16 175 -11 4 -14 14 -9 34 5 26 2 29 -28 39 l-34 10 -23 -71z"/>
<path d="M1970 1419 c-74 -23 -120 -76 -140 -163 -43 -195 162 -339 320 -225
54 39 79 95 80 177 0 93 -36 163 -101 197 -36 19 -117 26 -159 14z m109 -67
c45 -23 71 -73 71 -140 0 -103 -54 -168 -133 -158 -69 8 -110 67 -110 156 0
67 22 114 66 140 40 25 62 25 106 2z"/>
<path d="M2462 1414 c-18 -10 -37 -25 -43 -36 -13 -24 -29 -14 -29 18 0 20 -5
24 -29 24 -16 0 -30 -6 -32 -12 -2 -7 -3 -102 -1 -211 l3 -198 37 3 37 3 3
135 c5 172 16 197 92 210 32 5 35 8 35 40 0 42 -22 49 -73 24z"/>
<path d="M2689 1421 c-45 -14 -68 -31 -84 -61 -37 -71 -8 -125 92 -173 73 -34
93 -62 75 -101 -15 -34 -72 -44 -130 -24 -43 16 -43 16 -53 -9 -5 -13 -9 -26
-9 -29 0 -12 74 -34 115 -34 112 0 180 75 150 164 -16 45 -30 57 -112 96 -57
26 -63 32 -63 59 0 48 37 67 102 52 28 -6 52 -10 54 -9 1 2 4 14 6 28 2 21 -3
27 -32 37 -40 14 -74 15 -111 4z"/>
</g>
</svg>
